<svg width="700" height="700" viewBox="0 0 700 700" fill="none" xmlns="http://www.w3.org/2000/svg">
<g clip-path="url(#clip0_2_44)">
<rect width="700" height="700" rx="18" fill="#555555"/>
<g filter="url(#filter0_d_2_44)">
<g filter="url(#filter1_d_2_44)">
<circle cx="350" cy="350" r="265" fill="white"/>
</g>
<path d="M79.5212 524.785L126.354 151.294L206.254 141.484L342.546 492.491L279.023 500.29L248.387 414.887L152.11 426.708L143.044 516.986L79.5212 524.785ZM157.309 374.687L230.758 365.669L196.979 271.08C191.349 255.315 186.418 241.144 182.187 228.566C177.916 215.657 174.918 206.286 173.194 200.452C172.933 206.529 172.291 216.347 171.269 229.906C170.207 243.134 168.831 257.912 167.141 274.24L157.309 374.687Z" fill="#BCCCEA"/>
<path d="M84.193 497.625L127.563 123.716L207.369 113.166L346.907 462.895L283.459 471.282L252.033 386.167L155.87 398.88L147.641 489.237L84.193 497.625ZM160.587 346.812L233.948 337.114L199.294 242.842C193.519 227.131 188.457 213.005 184.11 200.467C179.718 187.598 176.634 178.255 174.856 172.438C174.651 178.517 174.101 188.341 173.204 201.909C172.265 215.146 171.026 229.936 169.487 246.279L160.587 346.812Z" fill="#202020"/>
<path d="M461.942 510.403C433.867 506.587 412.725 496.312 398.516 479.579C384.352 462.515 378.999 441.267 382.456 415.835C386.093 389.081 398.147 369.694 418.619 357.676C439.136 345.327 465.91 341.397 498.939 345.887L564.338 354.777L567.436 331.987C569.232 318.775 566.33 307.952 558.73 299.518C551.13 291.084 539.568 285.812 524.044 283.702C509.841 281.771 497.712 283.15 487.655 287.838C477.929 292.571 471.897 299.825 469.559 309.599L410.601 301.585C415.38 276.331 428.876 257.477 451.089 245.023C473.678 232.283 500.991 228.09 533.03 232.445C566.72 237.025 592.187 248.897 609.429 268.061C626.672 287.224 633.34 311.174 629.433 339.91L604.312 524.71L544.364 516.561L550.627 470.485L549.636 470.35C543.848 485.71 533.224 497.049 517.764 504.367C502.349 511.354 483.742 513.366 461.942 510.403ZM488.519 467.088C506.024 469.468 520.811 467.105 532.878 459.999C545.32 452.607 552.529 441.645 554.505 427.112L558.95 394.413L495.038 385.725C481.165 383.839 469.771 385.99 460.857 392.179C451.987 398.038 446.721 407.078 445.06 419.299C443.309 432.18 446.233 442.838 453.833 451.272C461.763 459.751 473.325 465.023 488.519 467.088Z" fill="#BCCCEA"/>
<path d="M456.942 487.403C428.867 483.587 407.725 473.312 393.516 456.579C379.352 439.515 373.999 418.267 377.456 392.835C381.093 366.081 393.147 346.694 413.619 334.676C434.136 322.327 460.91 318.397 493.939 322.887L559.338 331.777L562.436 308.987C564.232 295.775 561.33 284.952 553.73 276.518C546.13 268.084 534.568 262.812 519.044 260.702C504.841 258.771 492.712 260.15 482.655 264.838C472.929 269.571 466.897 276.825 464.559 286.599L405.601 278.585C410.38 253.331 423.876 234.477 446.089 222.023C468.678 209.283 495.991 205.09 528.03 209.445C561.72 214.025 587.187 225.897 604.429 245.061C621.672 264.224 628.34 288.174 624.433 316.91L599.312 501.71L539.364 493.561L545.627 447.485L544.636 447.35C538.848 462.71 528.224 474.049 512.764 481.367C497.349 488.354 478.742 490.366 456.942 487.403ZM483.519 444.088C501.024 446.468 515.811 444.105 527.878 436.999C540.32 429.607 547.529 418.645 549.505 404.112L553.95 371.413L490.038 362.725C476.165 360.839 464.771 362.99 455.857 369.179C446.987 375.038 441.721 384.078 440.06 396.299C438.309 409.18 441.233 419.838 448.833 428.272C456.763 436.751 468.325 442.023 483.519 444.088Z" fill="#202020"/>
</g>
</g>
<defs>
<filter id="filter0_d_2_44" x="5.04013" y="59" width="666.988" height="590" filterUnits="userSpaceOnUse" color-interpolation-filters="sRGB">
<feFlood flood-opacity="0" result="BackgroundImageFix"/>
<feColorMatrix in="SourceAlpha" type="matrix" values="0 0 0 0 0 0 0 0 0 0 0 0 0 0 0 0 0 0 127 0" result="hardAlpha"/>
<feOffset dy="4"/>
<feGaussianBlur stdDeviation="15"/>
<feComposite in2="hardAlpha" operator="out"/>
<feColorMatrix type="matrix" values="0 0 0 0 0 0 0 0 0 0 0 0 0 0 0 0 0 0 0.15 0"/>
<feBlend mode="normal" in2="BackgroundImageFix" result="effect1_dropShadow_2_44"/>
<feBlend mode="normal" in="SourceGraphic" in2="effect1_dropShadow_2_44" result="shape"/>
</filter>
<filter id="filter1_d_2_44" x="67" y="72" width="566" height="566" filterUnits="userSpaceOnUse" color-interpolation-filters="sRGB">
<feFlood flood-opacity="0" result="BackgroundImageFix"/>
<feColorMatrix in="SourceAlpha" type="matrix" values="0 0 0 0 0 0 0 0 0 0 0 0 0 0 0 0 0 0 127 0" result="hardAlpha"/>
<feOffset dy="5"/>
<feGaussianBlur stdDeviation="9"/>
<feComposite in2="hardAlpha" operator="out"/>
<feColorMatrix type="matrix" values="0 0 0 0 0 0 0 0 0 0 0 0 0 0 0 0 0 0 0.15 0"/>
<feBlend mode="normal" in2="BackgroundImageFix" result="effect1_dropShadow_2_44"/>
<feBlend mode="normal" in="SourceGraphic" in2="effect1_dropShadow_2_44" result="shape"/>
</filter>
<clipPath id="clip0_2_44">
<rect width="700" height="700" rx="18" fill="white"/>
</clipPath>
</defs>
</svg>
