<svg width="1381" height="276" viewBox="0 0 1381 276" fill="none" xmlns="http://www.w3.org/2000/svg">
<g clip-path="url(#clip0_2_32)">
<rect width="1381" height="276" rx="18" fill="#555555"/>
<g filter="url(#filter0_d_2_32)">
<ellipse cx="691" cy="210" rx="618" ry="343" fill="white"/>
</g>
<path d="M170.625 175L189.42 98.35H209.37L228.375 175H212.31L208.635 157.675H190.365L186.69 175H170.625ZM192.99 145.075H205.905L202.23 126.595C201.74 123.935 201.215 121.31 200.655 118.72C200.165 116.06 199.78 113.995 199.5 112.525C199.22 113.995 198.835 116.025 198.345 118.615C197.925 121.205 197.435 123.83 196.875 126.49L192.99 145.075ZM270.859 175C266.799 175 263.229 174.16 260.149 172.48C257.069 170.73 254.654 168.315 252.904 165.235C251.224 162.155 250.384 158.585 250.384 154.525V112.525H232.009V98.35H266.134V154C266.134 156.03 266.694 157.675 267.814 158.935C269.004 160.195 270.544 160.825 272.434 160.825H288.709V175H270.859ZM322.373 176.05C317.263 176.05 312.783 175.105 308.933 173.215C305.153 171.255 302.213 168.56 300.113 165.13C298.083 161.63 297.068 157.57 297.068 152.95V139.3C297.068 134.68 298.083 130.655 300.113 127.225C302.213 123.725 305.153 121.03 308.933 119.14C312.783 117.18 317.263 116.2 322.373 116.2C327.483 116.2 331.893 117.18 335.603 119.14C339.383 121.03 342.288 123.725 344.318 127.225C346.418 130.655 347.468 134.68 347.468 139.3V149.8H312.083V152.95C312.083 160.3 315.583 163.975 322.583 163.975C327.553 163.975 330.528 162.4 331.508 159.25H346.943C345.683 164.29 342.813 168.35 338.333 171.43C333.923 174.51 328.603 176.05 322.373 176.05ZM312.083 139.3V140.875L332.453 140.665V139.09C332.453 131.74 329.093 128.065 322.373 128.065C318.943 128.065 316.353 129.045 314.603 131.005C312.923 132.965 312.083 135.73 312.083 139.3ZM354.882 175L374.832 145.075L356.247 117.25H373.782L380.922 128.8C381.482 129.71 382.007 130.725 382.497 131.845C382.987 132.965 383.372 133.875 383.652 134.575C383.932 133.875 384.317 132.965 384.807 131.845C385.367 130.725 385.892 129.71 386.382 128.8L393.522 117.25H411.057L392.577 145.075L412.422 175H394.887L386.487 161.35C385.927 160.37 385.367 159.355 384.807 158.305C384.317 157.185 383.932 156.275 383.652 155.575C383.372 156.275 382.987 157.185 382.497 158.305C382.007 159.355 381.482 160.37 380.922 161.35L372.417 175H354.882ZM445.141 176.05C440.031 176.05 435.551 175.105 431.701 173.215C427.921 171.255 424.981 168.56 422.881 165.13C420.851 161.63 419.836 157.57 419.836 152.95V139.3C419.836 134.68 420.851 130.655 422.881 127.225C424.981 123.725 427.921 121.03 431.701 119.14C435.551 117.18 440.031 116.2 445.141 116.2C450.251 116.2 454.661 117.18 458.371 119.14C462.151 121.03 465.056 123.725 467.086 127.225C469.186 130.655 470.236 134.68 470.236 139.3V149.8H434.851V152.95C434.851 160.3 438.351 163.975 445.351 163.975C450.321 163.975 453.296 162.4 454.276 159.25H469.711C468.451 164.29 465.581 168.35 461.101 171.43C456.691 174.51 451.371 176.05 445.141 176.05ZM434.851 139.3V140.875L455.221 140.665V139.09C455.221 131.74 451.861 128.065 445.141 128.065C441.711 128.065 439.121 129.045 437.371 131.005C435.691 132.965 434.851 135.73 434.851 139.3ZM491.405 193.9L499.28 172.165L476.915 117.25H494.03L503.48 142.45C504.18 144.34 504.845 146.65 505.475 149.38C506.105 152.04 506.595 154.21 506.945 155.89C507.295 154.21 507.785 152.04 508.415 149.38C509.045 146.65 509.71 144.34 510.41 142.45L519.545 117.25H535.925L507.89 193.9H491.405ZM600.313 175L619.108 98.35H639.058L658.063 175H641.998L638.323 157.675H620.053L616.378 175H600.313ZM622.678 145.075H635.593L631.918 126.595C631.428 123.935 630.903 121.31 630.343 118.72C629.853 116.06 629.468 113.995 629.188 112.525C628.908 113.995 628.523 116.025 628.033 118.615C627.613 121.205 627.123 123.83 626.563 126.49L622.678 145.075ZM700.547 175C696.487 175 692.917 174.16 689.837 172.48C686.757 170.73 684.342 168.315 682.592 165.235C680.912 162.155 680.072 158.585 680.072 154.525V112.525H661.697V98.35H695.822V154C695.822 156.03 696.382 157.675 697.502 158.935C698.692 160.195 700.232 160.825 702.122 160.825H718.397V175H700.547ZM752.061 176.05C746.951 176.05 742.471 175.105 738.621 173.215C734.841 171.255 731.901 168.56 729.801 165.13C727.771 161.63 726.756 157.57 726.756 152.95V139.3C726.756 134.68 727.771 130.655 729.801 127.225C731.901 123.725 734.841 121.03 738.621 119.14C742.471 117.18 746.951 116.2 752.061 116.2C757.171 116.2 761.581 117.18 765.291 119.14C769.071 121.03 771.976 123.725 774.006 127.225C776.106 130.655 777.156 134.68 777.156 139.3V149.8H741.771V152.95C741.771 160.3 745.271 163.975 752.271 163.975C757.241 163.975 760.216 162.4 761.196 159.25H776.631C775.371 164.29 772.501 168.35 768.021 171.43C763.611 174.51 758.291 176.05 752.061 176.05ZM741.771 139.3V140.875L762.141 140.665V139.09C762.141 131.74 758.781 128.065 752.061 128.065C748.631 128.065 746.041 129.045 744.291 131.005C742.611 132.965 741.771 135.73 741.771 139.3ZM784.57 175L804.52 145.075L785.935 117.25H803.47L810.61 128.8C811.17 129.71 811.695 130.725 812.185 131.845C812.675 132.965 813.06 133.875 813.34 134.575C813.62 133.875 814.005 132.965 814.495 131.845C815.055 130.725 815.58 129.71 816.07 128.8L823.21 117.25H840.745L822.265 145.075L842.11 175H824.575L816.175 161.35C815.615 160.37 815.055 159.355 814.495 158.305C814.005 157.185 813.62 156.275 813.34 155.575C813.06 156.275 812.675 157.185 812.185 158.305C811.695 159.355 811.17 160.37 810.61 161.35L802.105 175H784.57ZM874.829 176.05C869.719 176.05 865.239 175.105 861.389 173.215C857.609 171.255 854.669 168.56 852.569 165.13C850.539 161.63 849.524 157.57 849.524 152.95V139.3C849.524 134.68 850.539 130.655 852.569 127.225C854.669 123.725 857.609 121.03 861.389 119.14C865.239 117.18 869.719 116.2 874.829 116.2C879.939 116.2 884.349 117.18 888.059 119.14C891.839 121.03 894.744 123.725 896.774 127.225C898.874 130.655 899.924 134.68 899.924 139.3V149.8H864.539V152.95C864.539 160.3 868.039 163.975 875.039 163.975C880.009 163.975 882.984 162.4 883.964 159.25H899.399C898.139 164.29 895.269 168.35 890.789 171.43C886.379 174.51 881.059 176.05 874.829 176.05ZM864.539 139.3V140.875L884.909 140.665V139.09C884.909 131.74 881.549 128.065 874.829 128.065C871.399 128.065 868.809 129.045 867.059 131.005C865.379 132.965 864.539 135.73 864.539 139.3ZM936.213 176.05C931.103 176.05 926.623 175.105 922.773 173.215C918.993 171.255 916.053 168.56 913.953 165.13C911.923 161.63 910.908 157.57 910.908 152.95V139.3C910.908 134.68 911.923 130.655 913.953 127.225C916.053 123.725 918.993 121.03 922.773 119.14C926.623 117.18 931.103 116.2 936.213 116.2C941.323 116.2 945.733 117.18 949.443 119.14C953.223 121.03 956.128 123.725 958.158 127.225C960.258 130.655 961.308 134.68 961.308 139.3V149.8H925.923V152.95C925.923 160.3 929.423 163.975 936.423 163.975C941.393 163.975 944.368 162.4 945.348 159.25H960.783C959.523 164.29 956.653 168.35 952.173 171.43C947.763 174.51 942.443 176.05 936.213 176.05ZM925.923 139.3V140.875L946.293 140.665V139.09C946.293 131.74 942.933 128.065 936.213 128.065C932.783 128.065 930.193 129.045 928.443 131.005C926.763 132.965 925.923 135.73 925.923 139.3ZM987.727 175L968.092 117.25H984.367L994.867 149.695C995.497 151.655 996.057 153.79 996.547 156.1C997.037 158.41 997.422 160.265 997.702 161.665C998.052 160.265 998.472 158.41 998.962 156.1C999.452 153.79 999.977 151.69 1000.54 149.8L1010.83 117.25H1026.89L1007.47 175H987.727ZM1056.46 176.05C1051.7 176.05 1047.54 175.315 1043.97 173.845C1040.4 172.305 1037.6 170.205 1035.57 167.545C1033.61 164.885 1032.63 161.77 1032.63 158.2H1048.38C1048.38 162.12 1051.07 164.08 1056.46 164.08H1061.08C1066.96 164.08 1069.9 162.19 1069.9 158.41C1069.9 154.98 1067.17 152.88 1061.71 152.11L1053.42 151.06C1040.68 149.45 1034.31 143.5 1034.31 133.21C1034.31 127.61 1036.23 123.375 1040.08 120.505C1043.93 117.635 1049.57 116.2 1056.99 116.2H1060.98C1068.05 116.2 1073.68 117.74 1077.88 120.82C1082.08 123.9 1084.18 128.03 1084.18 133.21H1068.43C1068.43 129.85 1065.95 128.17 1060.98 128.17H1056.99C1052.02 128.17 1049.53 129.85 1049.53 133.21C1049.53 136.36 1051.81 138.25 1056.36 138.88L1064.86 140.035C1078.37 141.715 1085.13 147.77 1085.13 158.2C1085.13 163.87 1083.1 168.28 1079.04 171.43C1074.98 174.51 1068.99 176.05 1061.08 176.05H1056.46ZM1096 175V98.35H1111.75V139.09H1119.73L1131.81 117.25H1149.13L1133.07 145.495L1149.45 175H1131.81L1119.63 152.32H1111.75V175H1096ZM1166.63 193.9L1174.5 172.165L1152.14 117.25H1169.25L1178.7 142.45C1179.4 144.34 1180.07 146.65 1180.7 149.38C1181.33 152.04 1181.82 154.21 1182.17 155.89C1182.52 154.21 1183.01 152.04 1183.64 149.38C1184.27 146.65 1184.93 144.34 1185.63 142.45L1194.77 117.25H1211.15L1183.11 193.9H1166.63Z" fill="#555555"/>
</g>
<defs>
<filter id="filter0_d_2_32" x="55" y="-146" width="1272" height="722" filterUnits="userSpaceOnUse" color-interpolation-filters="sRGB">
<feFlood flood-opacity="0" result="BackgroundImageFix"/>
<feColorMatrix in="SourceAlpha" type="matrix" values="0 0 0 0 0 0 0 0 0 0 0 0 0 0 0 0 0 0 127 0" result="hardAlpha"/>
<feOffset dy="5"/>
<feGaussianBlur stdDeviation="9"/>
<feComposite in2="hardAlpha" operator="out"/>
<feColorMatrix type="matrix" values="0 0 0 0 0 0 0 0 0 0 0 0 0 0 0 0 0 0 0.15 0"/>
<feBlend mode="normal" in2="BackgroundImageFix" result="effect1_dropShadow_2_32"/>
<feBlend mode="normal" in="SourceGraphic" in2="effect1_dropShadow_2_32" result="shape"/>
</filter>
<clipPath id="clip0_2_32">
<rect width="1381" height="276" rx="18" fill="white"/>
</clipPath>
</defs>
</svg>
